<?xml version="1.0" encoding="UTF-8"?><svg xmlns="http://www.w3.org/2000/svg" width="2756" height="479" viewBox="0 0 2756 479"><defs>
    <marker id="arrow-end" markerWidth="10" markerHeight="8" refX="8" refY="4" orient="auto" markerUnits="strokeWidth">
      <path d="M0 0 L8 4 L0 8 Z" fill="#64748b"/>
    </marker>
    <marker id="arrow-start" markerWidth="10" markerHeight="8" refX="2" refY="4" orient="auto-start-reverse" markerUnits="strokeWidth">
      <path d="M8 0 L0 4 L8 8 Z" fill="#64748b"/>
    </marker>
  </defs><g transform="translate(56 56)"><g id="edges"><path d="M202 118 L256 118" fill="none" stroke="#64748b" stroke-width="1.7" stroke-linecap="round" stroke-linejoin="round" marker-end="url(#arrow-end)"/><path d="M202 125.42857142857142 L222 125.42857142857142 L222 163.66666666666666 L500 163.66666666666666" fill="none" stroke="#64748b" stroke-width="1.7" stroke-linecap="round" stroke-linejoin="round" marker-end="url(#arrow-end)"/><path d="M202 95.71428571428571 L212 95.7142857142857 L212 12 L964 12 L964 64.66666666666666 L988 64.66666666666666" fill="none" stroke="#64748b" stroke-width="1.7" stroke-linecap="round" stroke-linejoin="round" marker-end="url(#arrow-end)"/><path d="M202 132.85714285714286 L212 132.85714285714286 L212 280.2 L1238 280.2 L1238 225.5333333333333 L1272 225.5333333333333" fill="none" stroke="#64748b" stroke-width="1.7" stroke-linecap="round" stroke-linejoin="round" marker-end="url(#arrow-end)"/><path d="M744 82 L466 82 L466 109.33333333333334 L446 109.33333333333333" fill="none" stroke="#64748b" stroke-width="1.7" stroke-linecap="round" stroke-linejoin="round" marker-end="url(#arrow-end)"/><path d="M744 95 L700 95 L700 137.66666666666666 L690 137.66666666666669" fill="none" stroke="#64748b" stroke-width="1.7" stroke-linecap="round" stroke-linejoin="round" marker-end="url(#arrow-end)"/><path d="M934 73.33333333333333 L944 73.33333333333334 L944 82 L988 82" fill="none" stroke="#64748b" stroke-width="1.7" stroke-linecap="round" stroke-linejoin="round" marker-end="url(#arrow-end)"/><path d="M446 126.66666666666666 L466 126.66666666666666 L466 231.2 L750.4 231.2" fill="none" stroke="#64748b" stroke-width="1.7" stroke-linecap="round" stroke-linejoin="round" marker-end="url(#arrow-end)"/><path d="M446 118 L954 118 L954 155.6 L1012 155.6" fill="none" stroke="#64748b" stroke-width="1.7" stroke-linecap="round" stroke-linejoin="round" marker-end="url(#arrow-end)"/><path d="M446 100.66666666666667 L456 100.66666666666666 L456 45 L1472 45 L1472 119.6 L1516 119.6" fill="none" stroke="#64748b" stroke-width="1.7" stroke-linecap="round" stroke-linejoin="round" marker-end="url(#arrow-end)"/><path d="M690 172.33333333333331 L700 172.33333333333331 L700 244.2 L750.4 244.2" fill="none" stroke="#64748b" stroke-width="1.7" stroke-linecap="round" stroke-linejoin="round" marker-end="url(#arrow-end)"/><path d="M690 163.66666666666666 L700 163.66666666666666 L700 166 L1012 166" fill="none" stroke="#64748b" stroke-width="1.7" stroke-linecap="round" stroke-linejoin="round" marker-end="url(#arrow-end)"/><path d="M690 146.33333333333334 L710 146.33333333333334 L710 129.39999999999998 L1472 129.39999999999998 L1472 130 L1516 130" fill="none" stroke="#64748b" stroke-width="1.7" stroke-linecap="round" stroke-linejoin="round" marker-end="url(#arrow-end)"/><path d="M1462 216.86666666666665 L1744 216.86666666666665" fill="none" stroke="#64748b" stroke-width="1.7" stroke-linecap="round" stroke-linejoin="round" marker-end="url(#arrow-end)"/><path d="M988 73.33333333333333 L954 73.33333333333334 L954 23 L222 23 L222 103.14285714285714 L202 103.14285714285714" fill="none" stroke="#64748b" stroke-width="1.7" stroke-linecap="round" stroke-linejoin="round" marker-end="url(#arrow-end)"/><path d="M988 90.66666666666666 L934 90.66666666666666" fill="none" stroke="#64748b" stroke-width="1.7" stroke-linecap="round" stroke-linejoin="round" marker-end="url(#arrow-end)"/><path d="M1218 73.33333333333333 L1968 73.33333333333334 L1968 299.7238095238095 L1978 299.7238095238095" fill="none" stroke="#64748b" stroke-width="1.7" stroke-linecap="round" stroke-linejoin="round" marker-end="url(#arrow-end)"/><path d="M1012 186.79999999999998 L954 186.79999999999998 L954 291.2 L456 291.2 L456 310.8666666666666 L446 310.8666666666666" fill="none" stroke="#64748b" stroke-width="1.7" stroke-linecap="round" stroke-linejoin="round" marker-end="url(#arrow-end)"/><path d="M446 323.8666666666666 L456 323.8666666666666 L456 319.5333333333333 L504 319.5333333333333" fill="none" stroke="#64748b" stroke-width="1.7" stroke-linecap="round" stroke-linejoin="round" marker-end="url(#arrow-end)"/><path d="M686 319.5333333333333 L700 319.5333333333333 L700 257.2 L750.4 257.2" fill="none" stroke="#64748b" stroke-width="1.7" stroke-linecap="round" stroke-linejoin="round" marker-end="url(#arrow-end)"/><path d="M1186 184.2 L1228 184.2 L1228 319.5333333333333 L1276 319.5333333333333" fill="none" stroke="#64748b" stroke-width="1.7" stroke-linecap="round" stroke-linejoin="round" marker-end="url(#arrow-end)"/><path d="M1458 319.5333333333333 L1472 319.5333333333333 L1472 150.79999999999998 L1516 150.79999999999998" fill="none" stroke="#64748b" stroke-width="1.7" stroke-linecap="round" stroke-linejoin="round" marker-end="url(#arrow-end)"/><path d="M924.4 252.86666666666665 L1928 252.86666666666665 L1928 329.43809523809523 L1978 329.43809523809523" fill="none" stroke="#64748b" stroke-width="1.7" stroke-linecap="round" stroke-linejoin="round" marker-end="url(#arrow-end)"/><path d="M1186 171.2 L1948 171.2 L1948 314.58095238095234 L1978 314.58095238095234" fill="none" stroke="#64748b" stroke-width="1.7" stroke-linecap="round" stroke-linejoin="round" marker-end="url(#arrow-end)"/><path d="M1690 126.53333333333332 L1958 126.53333333333333 L1958 307.1523809523809 L1978 307.1523809523809" fill="none" stroke="#64748b" stroke-width="1.7" stroke-linecap="round" stroke-linejoin="round" marker-end="url(#arrow-end)"/><path d="M1918 208.2 L1938 208.2 L1938 322.0095238095238 L1978 322.0095238095238" fill="none" stroke="#64748b" stroke-width="1.7" stroke-linecap="round" stroke-linejoin="round" marker-end="url(#arrow-end)"/><path d="M2160 309.6285714285714 L2214 309.6285714285714" fill="none" stroke="#64748b" stroke-width="1.7" stroke-linecap="round" stroke-linejoin="round" marker-end="url(#arrow-end)"/><path d="M2396 309.6285714285714 L2450 309.6285714285714" fill="none" stroke="#64748b" stroke-width="1.7" stroke-linecap="round" stroke-linejoin="round" marker-end="url(#arrow-end)"/></g><g id="groups"><g id="standards" data-kind="group"><rect x="-6" y="12" width="958" height="146.28571428571428" rx="18" ry="18" fill="#eef2ff" stroke="#4f46e5" stroke-width="2.4"/><text x="473" y="38" text-anchor="middle" font-family="Inter, Segoe UI, sans-serif" font-size="14" font-weight="600" fill="#1e1b4b" stroke="#ffffff" stroke-width="3" stroke-linejoin="round" paint-order="stroke"><tspan x="473" dy="0">Shared standards</tspan></text></g><g id="skilldev" data-kind="group"><rect x="238" y="12" width="1242" height="248.86666666666665" rx="18" ry="18" fill="#ecfeff" stroke="#0891b2" stroke-width="2.4"/><text x="859" y="38" text-anchor="middle" font-family="Inter, Segoe UI, sans-serif" font-size="14" font-weight="600" fill="#164e63" stroke="#ffffff" stroke-width="3" stroke-linejoin="round" paint-order="stroke"><tspan x="859" dy="0">Skill-development skills</tspan></text></g><g id="artifacts" data-kind="group"><rect x="718.4" y="25.19999999999999" width="1217.6" height="277" rx="18" ry="18" fill="#fff7ed" stroke="#ea580c" stroke-width="2.4"/><text x="1327.1999999999998" y="51.19999999999999" text-anchor="middle" font-family="Inter, Segoe UI, sans-serif" font-size="14" font-weight="600" fill="#7c2d12" stroke="#ffffff" stroke-width="3" stroke-linejoin="round" paint-order="stroke"><tspan x="1327.1999999999998" dy="0">Created / edited artifacts</tspan></text></g><g id="enforcement" data-kind="group"><rect x="246" y="248.29523809523806" width="2404" height="123.90476190476193" rx="18" ry="18" fill="#fef2f2" stroke="#dc2626" stroke-width="2.4"/><text x="1448" y="274.29523809523806" text-anchor="middle" font-family="Inter, Segoe UI, sans-serif" font-size="14" font-weight="600" fill="#7f1d1d" stroke="#ffffff" stroke-width="3" stroke-linejoin="round" paint-order="stroke"><tspan x="1448" dy="0">Mechanical enforcement</tspan></text></g><g id="skill_dir" data-kind="group"><rect x="736.4" y="69.19999999999999" width="967.6" height="215" rx="18" ry="18" fill="#fff7ed" stroke="#ea580c" stroke-width="2.4"/><text x="1220.2" y="95.19999999999999" text-anchor="middle" font-family="Inter, Segoe UI, sans-serif" font-size="14" font-weight="600" fill="#7c2d12" stroke="#ffffff" stroke-width="3" stroke-linejoin="round" paint-order="stroke"><tspan x="1220.2" dy="0">Skill directory</tspan></text></g></g><g id="nodes"><g id="guidelines" data-kind="node"><rect x="12" y="88.28571428571428" width="190" height="52" rx="14" ry="14" fill="#eef2ff" stroke="#4f46e5" stroke-width="1.8"/><text x="107" y="118.28571428571428" text-anchor="middle" font-family="Inter, Segoe UI, sans-serif" font-size="12" font-weight="500" fill="#1e1b4b" stroke="#ffffff" stroke-width="3" stroke-linejoin="round" paint-order="stroke"><tspan x="107" dy="0">skill guidelines</tspan></text></g><g id="blueprint_ref" data-kind="node"><rect x="744" y="56" width="190" height="52" rx="14" ry="14" fill="#eef2ff" stroke="#4f46e5" stroke-width="1.8"/><text x="839" y="86" text-anchor="middle" font-family="Inter, Segoe UI, sans-serif" font-size="12" font-weight="500" fill="#1e1b4b" stroke="#ffffff" stroke-width="3" stroke-linejoin="round" paint-order="stroke"><tspan x="839" dy="0">blueprint reference</tspan></text></g><g id="skill_maker" data-kind="node"><rect x="256" y="92" width="190" height="52" rx="14" ry="14" fill="#ecfeff" stroke="#0891b2" stroke-width="1.8"/><text x="351" y="122" text-anchor="middle" font-family="Inter, Segoe UI, sans-serif" font-size="12" font-weight="500" fill="#164e63" stroke="#ffffff" stroke-width="3" stroke-linejoin="round" paint-order="stroke"><tspan x="351" dy="0">skill-maker</tspan></text></g><g id="refactor" data-kind="node"><rect x="500" y="129" width="190" height="52" rx="14" ry="14" fill="#ecfeff" stroke="#0891b2" stroke-width="1.8"/><text x="595" y="159" text-anchor="middle" font-family="Inter, Segoe UI, sans-serif" font-size="12" font-weight="500" fill="#164e63" stroke="#ffffff" stroke-width="3" stroke-linejoin="round" paint-order="stroke"><tspan x="595" dy="0">refactor-skills</tspan></text></g><g id="update_guidelines" data-kind="node"><rect x="988" y="56" width="230" height="52" rx="14" ry="14" fill="#ecfeff" stroke="#0891b2" stroke-width="1.8"/><text x="1103" y="86" text-anchor="middle" font-family="Inter, Segoe UI, sans-serif" font-size="12" font-weight="500" fill="#164e63" stroke="#ffffff" stroke-width="3" stroke-linejoin="round" paint-order="stroke"><tspan x="1103" dy="0">update-skill-guidelines</tspan></text></g><g id="hook_maker" data-kind="node"><rect x="1272" y="190.86666666666665" width="190" height="52" rx="14" ry="14" fill="#ecfeff" stroke="#0891b2" stroke-width="1.8"/><text x="1367" y="220.86666666666665" text-anchor="middle" font-family="Inter, Segoe UI, sans-serif" font-size="12" font-weight="500" fill="#164e63" stroke="#ffffff" stroke-width="3" stroke-linejoin="round" paint-order="stroke"><tspan x="1367" dy="0">hook-maker</tspan></text></g><g id="skill_file" data-kind="node"><rect x="750.4" y="218.2" width="174" height="52" rx="14" ry="14" fill="#fff7ed" stroke="#ea580c" stroke-width="1.8"/><text x="837.4" y="248.2" text-anchor="middle" font-family="Inter, Segoe UI, sans-serif" font-size="12" font-weight="500" fill="#7c2d12" stroke="#ffffff" stroke-width="3" stroke-linejoin="round" paint-order="stroke"><tspan x="837.4" dy="0">SKILL.md</tspan></text></g><g id="blueprint" data-kind="node"><rect x="1012" y="145.2" width="174" height="52" rx="14" ry="14" fill="#fff7ed" stroke="#ea580c" stroke-width="1.8"/><text x="1099" y="175.2" text-anchor="middle" font-family="Inter, Segoe UI, sans-serif" font-size="12" font-weight="500" fill="#7c2d12" stroke="#ffffff" stroke-width="3" stroke-linejoin="round" paint-order="stroke"><tspan x="1099" dy="0">blueprint.yaml</tspan></text></g><g id="scripts" data-kind="node"><rect x="1516" y="109.19999999999999" width="174" height="52" rx="14" ry="14" fill="#fff7ed" stroke="#ea580c" stroke-width="1.8"/><text x="1603" y="139.2" text-anchor="middle" font-family="Inter, Segoe UI, sans-serif" font-size="12" font-weight="500" fill="#7c2d12" stroke="#ffffff" stroke-width="3" stroke-linejoin="round" paint-order="stroke"><tspan x="1603" dy="0">scripts/</tspan></text></g><g id="hook_files" data-kind="node"><rect x="1744" y="182.2" width="174" height="52" rx="14" ry="14" fill="#fff7ed" stroke="#ea580c" stroke-width="1.8"/><text x="1831" y="212.2" text-anchor="middle" font-family="Inter, Segoe UI, sans-serif" font-size="12" font-weight="500" fill="#7c2d12" stroke="#ffffff" stroke-width="3" stroke-linejoin="round" paint-order="stroke"><tspan x="1831" dy="0">hook files</tspan></text></g><g id="sync" data-kind="node"><rect x="264" y="297.8666666666666" width="182" height="52" rx="14" ry="14" fill="#f5f3ff" stroke="#7c3aed" stroke-width="1.8"/><text x="355" y="327.8666666666666" text-anchor="middle" font-family="Inter, Segoe UI, sans-serif" font-size="12" font-weight="500" fill="#3b0764" stroke="#ffffff" stroke-width="3" stroke-linejoin="round" paint-order="stroke"><tspan x="355" dy="0">blueprint sync</tspan></text></g><g id="generated" data-kind="node"><rect x="504" y="302.2" width="182" height="52" rx="14" ry="14" fill="#f5f3ff" stroke="#7c3aed" stroke-width="1.8"/><text x="595" y="332.2" text-anchor="middle" font-family="Inter, Segoe UI, sans-serif" font-size="12" font-weight="500" fill="#3b0764" stroke="#ffffff" stroke-width="3" stroke-linejoin="round" paint-order="stroke"><tspan x="595" dy="0">generated blocks</tspan></text></g><g id="dispatcher" data-kind="node"><rect x="1276" y="302.2" width="182" height="52" rx="14" ry="14" fill="#f5f3ff" stroke="#7c3aed" stroke-width="1.8"/><text x="1367" y="332.2" text-anchor="middle" font-family="Inter, Segoe UI, sans-serif" font-size="12" font-weight="500" fill="#3b0764" stroke="#ffffff" stroke-width="3" stroke-linejoin="round" paint-order="stroke"><tspan x="1367" dy="0">dispatcher</tspan></text></g><g id="validators" data-kind="node"><rect x="1978" y="292.29523809523806" width="182" height="52" rx="14" ry="14" fill="#fef2f2" stroke="#dc2626" stroke-width="1.8"/><text x="2069" y="322.29523809523806" text-anchor="middle" font-family="Inter, Segoe UI, sans-serif" font-size="12" font-weight="500" fill="#7f1d1d" stroke="#ffffff" stroke-width="3" stroke-linejoin="round" paint-order="stroke"><tspan x="2069" dy="0">validators</tspan></text></g><g id="pre_commit" data-kind="node"><rect x="2214" y="292.29523809523806" width="182" height="52" rx="14" ry="14" fill="#fef2f2" stroke="#dc2626" stroke-width="1.8"/><text x="2305" y="322.29523809523806" text-anchor="middle" font-family="Inter, Segoe UI, sans-serif" font-size="12" font-weight="500" fill="#7f1d1d" stroke="#ffffff" stroke-width="3" stroke-linejoin="round" paint-order="stroke"><tspan x="2305" dy="0">pre-commit hook</tspan></text></g><g id="ci" data-kind="node"><rect x="2450" y="292.29523809523806" width="182" height="52" rx="14" ry="14" fill="#fef2f2" stroke="#dc2626" stroke-width="1.8"/><text x="2541" y="322.29523809523806" text-anchor="middle" font-family="Inter, Segoe UI, sans-serif" font-size="12" font-weight="500" fill="#7f1d1d" stroke="#ffffff" stroke-width="3" stroke-linejoin="round" paint-order="stroke"><tspan x="2541" dy="0">CI checks</tspan></text></g></g></g></svg>